<?xml version="1.0" encoding="UTF-8"?>
<svg id="Layer_1" xmlns="http://www.w3.org/2000/svg" version="1.1" viewBox="0 0 24 25">
  <!-- Generator: Adobe Illustrator 29.6.0, SVG Export Plug-In . SVG Version: 2.1.1 Build 207)  -->
  <path d="M20.716797,12.648438c.277344-.038086.516602-.173828.674805-.382324.154297-.203613.21875-.461426.181641-.727051-.086914-.617188-.188477-1.273438-.383789-1.91748l-.046875-.152832.005859.005371c-.709961-2.115723-2.077148-3.541992-4.06543-4.240723-1.232422-.429199-2.592773-.554199-4.275391-.392578l-.027832.002441-.012207-.025391c-.173828-.365234-.428223-.577148-.71582-.595215l-.037598-.002441v-.392578c.070801-.37793.114746-.524414.29834-.59375.544922-.214844.606934-.635742.494141-.930664-.093262-.240234-.307129-.456055-.648926-.456055-.094727,0-.199707.016602-.314453.054199-.492676.158203-.848145.521484-1.057617,1.080566-.120605.328613-.180664.693848-.189941,1.150391l-.000488.024414-.022461.010742c-.416992.19873-.689453.550293-.788086,1.016113l-.004883.022949-.022461.006836c-1.464355.454102-2.67334,1.399414-3.594238,2.808594-.838379,1.303711-1.330078,2.816895-1.460938,4.49707-.161621,2.069824.228516,3.97998,1.158691,5.679199.925781,1.679688,2.16748,2.766602,3.795898,3.323242.043457.012695.072754.035156.096191.118164.179688.557617.559082.929688,1.09668,1.075195.166016.046875.335938.070312.505859.070312.70459,0,1.277344-.425781,1.531738-1.138672.029297-.077148.05127-.099609.069336-.115234l.016113-.009766c1.563477-.525391,2.813477-1.588867,3.713867-3.161133.953125-1.65332,1.380859-3.512695,1.270508-5.527832l-.001953-.041992h.691406c.78125,0,1.436523-.044922,2.070312-.14209ZM14.797852,18.577148c-.607422.748047-1.348633,1.273438-2.20459,1.5625-.545898.174805-.897949.53125-1.106445,1.121094l.068848.023438-.066895.044922c-.009277.006836-.049316.027344-.164551.027344-.101562,0-.137207-.009766-.143555-.011719l-.009766-.00293-.006836-.007812c-.003906-.003906-.037109-.040039-.069824-.136719-.178223-.515625-.496582-.850586-.945801-.99707-1.40625-.469727-2.460938-1.450195-3.224121-2.998047-.666504-1.342773-.947266-2.848633-.834961-4.475098.111816-1.598633.584473-2.963379,1.445312-4.172852.733398-1.018555,1.602051-1.672363,2.654785-1.999023.455566-.140137.768555-.466797.904297-.945801.05127-.182129.084961-.201172.217773-.201172h.023438c.010742,0,.10498.001953.15332.067383.028809.04248.039062.106445.027344.171387-.047852.242676-.010742.45459.018555.625l.001953.010742c.005371.030273.010254.060547.015137.09082.005371.030273.010254.060059.015625.090332.064941.637695.190918,1.587402.53418,2.504395.695312,1.854492,2.065918,3.04834,4.072754,3.549805l.181641.041016c.050781.009277.101562.02002.142578.029785l.03125.007324v.173828c.121094,2.32666-.445312,4.227051-1.731445,5.807129ZM17.894531,11.372559c-.795898-.049805-1.499023-.203125-2.149414-.469238-1.314453-.542969-2.126953-1.532715-2.484375-3.025879l-.000977-.013672c-.106445-.421875-.166992-.866211-.212891-1.245605-.010742-.056152-.018555-.117188-.026367-.178223-.006836-.055176-.013672-.110352-.023926-.163574l-.007812-.043457.043457-.003906c1.494141-.128906,2.6875-.00293,3.754883.396484,1.423828.540039,2.385742,1.575195,2.94043,3.164551.152344.438477.242188.889648.336914,1.367676l.019531.123535v.035645l-.036133.003906c-.453125.049805-.90625.074219-1.371094.074219-.256836,0-.516602-.007324-.782227-.022461Z"/>
</svg>