<?xml version="1.0" encoding="UTF-8"?>
<svg id="Layer_1" xmlns="http://www.w3.org/2000/svg" version="1.1" viewBox="0 0 24 25">
  <!-- Generator: Adobe Illustrator 29.6.0, SVG Export Plug-In . SVG Version: 2.1.1 Build 207)  -->
  <path d="M20.317383,5.507812c.291992-.033203.503906-.071777.69043-.126465.579102-.17627.867188-.766602.699219-1.436523l.003906-.001465c-.173828-.675781-.735352-.909668-1.099609-.909668-.025391,0-.048828.000977-.072266.003418-.308594,0-1.615234.070312-2.142578.280273-.974609.380371-2.027344,1.614258-2.567383,2.316406-.28418.365723-.491211.746582-.710938,1.149414l-.06543.115723c-.191406.339844-.389648.691406-.655273,1.055664l-.010742.015625-.019531.003906c-.020508.004395-.040039.010742-.060547.016602-.026367.007812-.051758.015625-.078125.020508-.675781.216797-1.278809.689453-1.691895,1.328125-.436035.665039-.617676,1.472168-.498535,2.213867l.008789.054688-.055176.00293c-.764648.044922-1.505859.404785-2.086914,1.012207-.516602.542969-.830566,1.239258-.885254,1.960938v.226562l-.054199-.004883c-.724121-.064453-1.458984.134766-2.079102.560547-.627441.419922-1.083008,1.033203-1.283691,1.725586-.018066.053711-.027344.108398-.035156.151367l-.00293.016602-.013184.011719c-1.613281,1.43457-2.679688,1.939453-2.833984,1.990234l.000488.000977c-.319824.12207-.514648.454102-.464355.790039.052246.341797.337402.602539.677734.620117.750977.041992,1.454102.179688,1.980469.387695.011719.003906.019531.007812.022949.008789,1.366699.613281,2.495117.897461,3.557617.897461,2.251953,0,4.318848-1.267578,7.371094-4.519531,4.316406-4.58252,5.224609-7.498047,3.469727-11.142578l-.010742-.022461.011719-.021973c.161133-.313477.303711-.552734.344727-.60498l.011719-.01123c.083008-.054688.336914-.094727.612305-.134277l.014648-.001953ZM13.764648,10.129395c.219727-.346191.549805-.611328.907227-.727051.055664-.018555.117188-.02832.171875-.037109l.083984-.013672-.019531.078613c-.300781.82373-.674805,1.631836-1.112305,2.40332l-.035156.061035-.045898-.052734c-.354492-.403809-.333008-1.124023.049805-1.712402ZM10.980469,13.619141v-.000977l.007812-.007812h.000488c.555176-.577148,1.363281-.729492,1.804688-.333008l.034668.030273-.02832.037109c-.275879.362305-.554688.694336-.829102.986328-.394043.413086-.776855.771484-1.170898,1.095703l-.036133.029297-.031738-.03418c-.172363-.181641-.253418-.442383-.234375-.751953.028809-.37793.195801-.740234.48291-1.050781ZM6.972656,17.738281c0-.06543.016602-.141602.049316-.228516.097656-.337891.330078-.652344.65625-.888672l-.000488-.000977.043457-.041992c.305664-.207031.657715-.321289.991211-.321289.244141,0,.462891.05957.633301.172852l.062988.041992-.063477.041992c-.69873.457031-1.473145.884766-2.301758,1.269531l-.070801.033203v-.078125ZM14.816406,16.459961c-2.673828,2.84375-4.416016,4.052734-6.333008,4.052734-.805176,0-1.641113-.213867-2.589844-.608398l-.120605-.049805.123047-.042969c1.981934-.695312,4.828125-2.038086,7.131348-4.484375,3.332031-3.548828,4.098633-8.223633,4.217773-9.124512l.001953-.01416.008789-.01123c.283203-.344238.586914-.669434.876953-.940918l.078125.060547c-.109375.202148-.222656.432129-.348633.703613-.087891.213867-.082031.435059.018555.637207,1.692383,3.236328.976562,5.53125-3.064453,9.822266Z"/>
</svg>