<?xml version="1.0" encoding="UTF-8"?>
<svg id="Layer_1" xmlns="http://www.w3.org/2000/svg" version="1.1" viewBox="0 0 24 25">
  <!-- Generator: Adobe Illustrator 29.6.0, SVG Export Plug-In . SVG Version: 2.1.1 Build 207)  -->
  <path d="M11.264875,10.422934c-.747388.87703-1.449017,1.587564-2.07057,2.216736l-.057197.059746c-1.671455,1.68035-2.882782,2.900573-3.414088,5.532953l-.021607.008893c-.794417.322858-1.548161.629182-2.149375,1.114735.025421-.807131.366068-1.620613.952029-2.266319l6.324832-6.980699c.130921.120753.278364.227522.435977.313956M12.276645,10.719085c.062282.003821.144902.005091.221165.006362-.76264,1.619333-2.168441,3.025137-3.769986,3.787776.330478-.362249.69146-.728319,1.094389-1.13506l.031776-.033049c.721967-.728319,1.537992-1.553245,2.422656-2.626028M11.446637,15.627948c.434705-.458855.770267-.802039,1.054986-1.091839.991434-1.007956,1.268526-1.288862,2.460788-3.306054.134732.067368.272007.115671.396572.151261l-6.59684,9.158044c-.583421.813482-1.44012,1.348599-2.350204,1.470622-1.147775.156343-2.231995-.452504-2.660345-1.480795.484277-.644436,1.255815-.960923,2.313343-1.394361,1.496047-.607566,3.35689-1.363853,5.3817-3.506879M21.729574,7.835037h0c-.189389-.527494-.603758-.95076-1.136334-1.161758-.256755-.099137-.530035-.143629-.790604-.14617-.331749-.678755-1.16684-1.210061-1.787121-1.239289-1.074052-.081352-1.626966.723238-1.727381.810942-.348273-.280907-.860513-.430898-.866867-.432168-.893562-.209727-1.741364.242776-2.109973,1.13379-.122022.29362-.288533.69528-.172865,1.029571.081348.237685.293617.355897.551643.296151.246586-.055925.48809-.282167.4525-.594853-.036861-.2199.03686-.390217.176678-.608846.120751-.188112.302514-.302513.527493-.3292.280906-.031779.608841.07372.851615.277086-.067367.214818.025421.456315.230063.569445.235148.127105.530036.040671.657142-.193203.266924-.490634.794417-.799508,1.287591-.769.488091.03686.926608.457585.936777.901186.003814.167786.094059.319037.240232.405471.144902.085163.319037.088974.463939.012713.180492-.091515.413097-.095336.640618-.007632.217353.086434.376237.245317.448688.448693.07245.203366.048301.425806-.066096.629172-.11948.210998-.302514.355907-.502072.396578-.228793.045762-.380049.236415-.378779.47411.001272.202095.122023.427077.390218.47665.025422.003811.088976.083893.086432.171597-.006354.294881-.265653.498256-.505885.589771-.275822.105499-.646973.111851-.851614-.10804-.2021-.214809-.47411-.175408-.64189-.048303s-.278364.377503-.127106.630452c.027964.045753.001272.114391-.017795.152522-.071181.144909-.169052.22117-.2987.233884-.012711.00127-.025422.00127-.038133.00127-.27455,0-.634262-.25549-.837634-.528765-.054655-.076271-.120751-.169056-.165238-.235154-.002543-.008893-.002543-.034319-.002543-.050834-.00127-.047033-.00127-.099147-.022879-.14872-.086432-.198284-.367338-.394028-.578336-.405471-.048301.00127-.101685.013984-.138545.025427-.020338.007622-.04576.025417-.059741.013974-.209726-.047023-.700358-.157613-.733406-.449953-.011441-.099147.058469-.264382.115667-.397849.067367-.160154.048301-.32793-.052114-.458855-.109311-.143629-.302513-.228793-.480463-.202095-.162696.020336-.294887.125834-.360982.285988-.087704.210998-.219895.528765-.181763.87831.015253.127105.048301.249128.101685.362249-1.243104,2.113788-1.455372,2.329867-2.448076,3.340373-.279635.282177-.624094.632983-1.063883,1.0982-1.433765,1.518925-2.77347,2.276482-3.91616,2.796345.19066-.676205.448686-1.268527.802043-1.840503,2.497648-.58469,4.861834-2.637461,5.89267-5.12113.001272-.002541.08389-.203375.118209-.325399.197016-.127105.275823-.378774.179221-.599944-.053385-.118203-.147445-.208447-.268196-.25548-.122023-.048303-.252942-.044492-.371151.008902-.441061.194473-.97618.185571-1.396903-.024156-.316497-.157613-.709256-.556722-.592318-.94949.036861-.122023.02288-.252939-.041945-.367331-.063552-.115671-.171593-.202105-.297429-.236424-.474108-.127105-.847803-.508429-.910085-.929144-.05974-.395308.228793-.836368.583421-.891023.175407-.027968.317767-.14617.378777-.315226.05974-.169046.02415-.355897-.094058-.489364-.41691-.458855-.524951-1.145223-.250401-1.597727.133463-.22117.397844-.381324.687648-.419455.23896-.027958.451228.030508.584691.162695.137276.134737.336833.170326.519867.096606.181762-.07372.297429-.238965.301243-.429618.003812-.213548.151258-.36734.273279-.460136.274551-.203366.560541-.242767.84399-.119473.418181.18176.780436.715606.840176,1.240559.015252.137277.091518.260571.207184.340643.11821.080082.264382.104228.399114.069909.560541-.148711,1.221496.175408,1.446475.706713.120752.284718.406741.339383.626636.246587.041945-.017795.077535-.045753.113125-.07245l.001272.006362c.006355-.005091.007626-.011443.013981-.015254.039403-.033049.069909-.071179.097872-.113131.199558-.25421.152529-.597403-.074993-.999053-.268195-.471569-.985077-.930424-1.802373-.98635-.068639-.18431-.1538-.357168-.1538-.357168-.109312-.205916-.240232-.396578-.39149-.564354-.777893-.861786-1.989219-1.006685-2.881509-.345734-.169052.125834-.311411.270734-.42835.432168-.221166-.047033-.456314-.055935-.686376-.027968-.72578.090245-1.301573.494445-1.620612,1.137601-.322851.649518-.335562,1.42741-.039402,2.116329-.516054.446142-.781707,1.141422-.682564,1.821438.102957.69528.568168,1.330814,1.22658,1.687981.008897.077531.022879.156343.041945.233874l-6.40618,7.069683c-.892289.982529-1.348603,2.258688-1.253273,3.501788.14236,1.8672,1.633322,3.345455,3.466202,3.440781.069908.003811.139817.005081.209726.005081.177949,0,.355899-.012713.531307-.034319,1.234206-.167776,2.388336-.87958,3.164958-1.956175l6.39474-8.88603c.10677.100417.207184.180489.264382.223711.414368.306324.819839.455044,1.239291.455044.54783,0,1.07151-.301242,1.372753-.800779.538932.057205,1.105829-.096597,1.5596-.432158.477922-.352086.74993-.845261.765183-1.388009.005084-.174138-.02415-.349546-.08389-.514781.128378-.130916.23896-.279636.331748-.442331.285991-.500797.340646-1.091848.149986-1.623154"/>
</svg>