<?xml version="1.0" encoding="UTF-8"?>
<svg id="Layer_1" xmlns="http://www.w3.org/2000/svg" version="1.1" viewBox="0 0 24 24">
  <!-- Generator: Adobe Illustrator 29.6.0, SVG Export Plug-In . SVG Version: 2.1.1 Build 207)  -->
  <path d="M19.5,8c0,.276-.224001.5-.5.5h-4c-.276,0-.5-.224-.5-.5v-4c0-.276001.224-.5.5-.5h4c.275999,0,.5.223999.5.5v4ZM14,15.5c.276,0,.5.224.5.5v4c0,.275999-.224.5-.5.5h-4c-.276,0-.5-.224001-.5-.5v-4c0-.276.224-.5.5-.5h4ZM5,8.5c-.276,0-.5-.224-.5-.5v-4c0-.276001.224-.5.5-.5h4c.276,0,.5.223999.5.5v4c0,.276-.224.5-.5.5h-4ZM19,2h-4c-1.105,0-2,.895-2,2v4c0,1.105.895,2,2,2h1.25c0,.469-.381001.85-.85.85h-1.4c-.788,0-1.499001.330999-2,.862-.500999-.531-1.212-.862-2-.862h-1.4c-.469001,0-.85-.381001-.85-.85h1.25c1.105,0,2-.895,2-2v-4c0-1.105-.895-2-2-2h-4c-1.105,0-2,.895-2,2v4c0,1.105.895,2,2,2h1.25c0,1.298,1.052,2.35,2.35,2.35h1.4c.69,0,1.25.559999,1.25,1.25v.4h-1.25c-1.105,0-2,.895-2,2v4c0,1.105.895,2,2,2h4c1.105,0,2-.895,2-2v-4c0-1.105-.895-2-2-2h-1.25v-.4c0-.690001.559999-1.25,1.25-1.25h1.4c1.298,0,2.35-1.052,2.35-2.35h1.25c1.105,0,2-.895,2-2v-4c0-1.105-.895-2-2-2"/>
</svg>