<?xml version="1.0" encoding="UTF-8"?>
<svg id="Layer_1" xmlns="http://www.w3.org/2000/svg" version="1.1" viewBox="0 0 24 25">
  <!-- Generator: Adobe Illustrator 29.6.0, SVG Export Plug-In . SVG Version: 2.1.1 Build 207)  -->
  <path d="M21.543701,17.191711c-.180908-.243896-.376587-.489807-.579346-.744507v-.000061c-.171387-.215332-.3479-.437134-.524658-.669312l-.023926-.031433c-.165466-.218262-.331177-.445984-.493164-.686462l-.001648-.002441c-.077759-.115479-.154602-.233887-.230164-.355652-.042908-.068604-.117615-.10614-.194092-.097229-.060425.007324-.114807.042908-.148743.097229-.075562.121765-.152466.240173-.230164.355652l-.002319.003418c-.161682.240112-.327087.467407-.492371.685303l-.024048.031616c-.176758.232178-.353271.453979-.524658.669312l-.000122.000183c-.202698.2547-.398376.500488-.579224.744385-.553101.745911-.976562,1.493042-.976562,2.413635,0,1.812866,1.367615,3.000366,3.000916,3.000366,1.633179,0,3.000854-1.1875,3.000854-3.000366,0-.920593-.423584-1.667725-.976562-2.413635ZM19.519409,21.105713c-.865234,0-1.500916-.575012-1.500916-1.500366,0-.423401.179077-.842712.681519-1.520142.12677-.171082.288879-.375305.470947-.604492.110046-.138489.227234-.286194.34845-.441162.121094.154968.238403.302673.348389.441162.182007.229187.344116.433411.471008.604492.50238.677429.681458,1.096741.681458,1.520142,0,.925354-.635803,1.500366-1.500854,1.500366Z"/>
  <path d="M19.316772,13.544495l-7.12146-7.121521-.275391-.27533v-1.250183c-.000488-1.62207-1.320801-2.942383-2.942871-2.942871-1.622559,0-2.942871,1.320312-2.942871,2.943359v4.354492l-.27533.27533-3.094421,3.094482c-1.525635,1.525696-1.525635,4.008179,0,5.533997l3.633362,3.633301c.739075.739075,1.721802,1.146179,2.766968,1.146179,1.045227,0,2.027954-.407104,2.767029-1.146179l7.484985-7.485046c.2099-.2099.2099-.55011,0-.76001ZM7.408691,4.897461c0-.864746.703613-1.568359,1.568359-1.568359.351562,0,.684082.114258.961914.330566.192871.149902.350098.345703.455078.566406.100586.210938.151367.437012.151367.671875v.084045c-.005371-.000183-.010376-.002502-.015808-.002502-.05719,0-.113403.009094-.166809.02655-.032227.010498-.063232.023987-.092896.040344-.043701.024109-.08429.054504-.1203.090515l-1.390747,1.390747-1.075012,1.074951-.275146.275208v-2.980347ZM10.771057,20.728821c-.457764.457886-1.058899.706909-1.706299.706909-.647339,0-1.248535-.249023-1.706238-.706787l-.000061-.000122-3.633362-3.633301c-.93988-.940002-.93988-2.472778,0-3.41272l3.519409-3.519348.439331-.439331v-.000183l.635681-.635681,2.209839-2.209839.179932.179932,6.866211,6.86615-6.804443,6.804321Z"/>
  <path d="M8.542175,13.280029c0,1.436584,1.166382,2.602966,2.603027,2.602966,1.436584,0,2.602966-1.166382,2.602966-2.602966,0-1.436707-1.166382-2.603027-2.602966-2.603027-1.436646,0-2.603027,1.166321-2.603027,2.603027ZM11.145203,12.177002c.608154,0,1.102966.494812,1.102966,1.103027s-.494812,1.102966-1.102966,1.102966c-.608215,0-1.103027-.494751-1.103027-1.102966s.494812-1.103027,1.103027-1.103027Z"/>
</svg>